<svg viewBox="0 0 64 64" xmlns="http://www.w3.org/2000/svg">
  <defs>
    <radialGradient id="g-grad" cx="38%" cy="32%" r="75%">
      <stop offset="0%" stop-color="#c4b5fd"/>
      <stop offset="45%" stop-color="#8b5cf6"/>
      <stop offset="100%" stop-color="#312e81"/>
    </radialGradient>
    <radialGradient id="g-glow" cx="50%" cy="50%" r="50%">
      <stop offset="62%" stop-color="#8b5cf6" stop-opacity="0.32"/>
      <stop offset="100%" stop-color="#8b5cf6" stop-opacity="0"/>
    </radialGradient>
  </defs>
  <circle cx="32" cy="32" r="31" fill="url(#g-glow)"/>
  <circle cx="32" cy="32" r="26" fill="url(#g-grad)"/>
  <ellipse cx="32" cy="32" rx="25.5" ry="8.5" fill="none" stroke="#a5b4fc" stroke-width="2.4" opacity="0.9" transform="rotate(-22 32 32)"/>
  <ellipse cx="32" cy="32" rx="19" ry="5.5" fill="none" stroke="#c7d2fe" stroke-width="1" opacity="0.45" transform="rotate(-22 32 32)"/>
  <path d="M21 20 l1.2 2.7 2.7 1.2 -2.7 1.2 -1.2 2.7 -1.2 -2.7 -2.7 -1.2 2.7 -1.2 Z" fill="#f5f3ff"/>
  <path d="M44.5 38 l0.95 2.15 2.15 0.95 -2.15 0.95 -0.95 2.15 -0.95 -2.15 -2.15 -0.95 2.15 -0.95 Z" fill="#e0e7ff"/>
  <circle cx="39" cy="18.5" r="1.1" fill="#ede9fe"/>
  <circle cx="26" cy="42.5" r="0.9" fill="#c7d2fe" opacity="0.9"/>
  <circle cx="47" cy="27" r="0.7" fill="#e0e7ff" opacity="0.8"/>
  <circle cx="17.5" cy="33" r="0.6" fill="#c7d2fe" opacity="0.7"/>
</svg>
